<svg width="1683" height="380" viewBox="0 0 1683 380" fill="none" xmlns="http://www.w3.org/2000/svg">
<path d="M268.544 340.232C244.309 366.173 205.739 379.144 152.832 379.144C99.9253 379.144 61.3547 366.173 37.12 340.232C12.8853 314.291 0.768002 274.013 0.768002 219.4V0.263977H89.856V219.4C89.856 247.389 94.8053 267.869 104.704 280.84C114.603 293.811 130.645 300.296 152.832 300.296C175.019 300.296 191.061 293.811 200.96 280.84C210.859 267.869 215.808 247.389 215.808 219.4V0.263977H304.896V219.4C304.896 274.013 292.779 314.291 268.544 340.232ZM463.452 373H376.412V0.263977H465.5L598.62 218.376V0.263977H685.66V373H596.572L463.452 154.888V373ZM926.228 373H837.14V82.184H746.004V0.263977H1017.36V82.184H926.228V373ZM1092.21 373H1000.05L1117.81 0.263977H1232.5L1350.77 373H1258.1L1237.62 305.928H1112.69L1092.21 373ZM1175.15 102.152L1135.22 232.2H1215.09L1175.15 102.152ZM1481 373H1391.91V0.263977H1516.33C1618.39 0.263977 1669.42 40.712 1669.42 121.608C1669.42 173.149 1647.91 206.941 1604.9 222.984C1604.9 223.325 1605.07 223.667 1605.42 224.008L1682.22 373H1579.82L1526.57 259.848C1523.5 253.363 1520.42 249.096 1517.35 247.048C1514.28 244.659 1509.33 243.464 1502.5 243.464H1481V373ZM1516.33 72.968H1481V170.76H1516.33C1535.78 170.76 1551.31 166.664 1562.92 158.472C1574.53 150.28 1580.33 137.992 1580.33 121.608C1580.33 105.907 1574.35 93.96 1562.41 85.768C1550.8 77.2346 1535.44 72.968 1516.33 72.968Z" fill="url(#paint0_radial_3_33)"/>
<defs>
<radialGradient id="paint0_radial_3_33" cx="0" cy="0" r="1" gradientUnits="userSpaceOnUse" gradientTransform="translate(832 373) rotate(-90) scale(443.5 1181.98)">
<stop stop-color="#99B2C4"/>
<stop offset="1" stop-color="white"/>
</radialGradient>
</defs>
</svg>
